<svg width="2666" height="2948" viewBox="0 0 2666 2948" fill="none" xmlns="http://www.w3.org/2000/svg">
<ellipse cx="648.5" cy="1887" rx="303.5" ry="395" fill="#C4C4C4"/>
<ellipse cx="1882.5" cy="1898" rx="303.5" ry="395" fill="#C4C4C4"/>
<path d="M2294.91 2840.72C2285.75 2858.86 2237.5 2852.96 2187.14 2827.53C1979.5 2739.17 1978.44 2696.72 2112.56 2748.63C2121.72 2730.49 2169.97 2736.39 2220.33 2761.82C2270.68 2787.25 2304.07 2822.57 2294.91 2840.72Z" fill="#E8CAA8"/>
<ellipse cx="2256.77" cy="2768.44" rx="83" ry="37" transform="rotate(26.7933 2256.77 2768.44)" fill="#E8CAA8"/>
<path d="M2336.63 2753.13C2330.65 2774.16 2277.82 2777.58 2218.63 2760.76C2159.44 2743.93 2116.3 2713.25 2122.28 2692.21C2029.83 2633.2 2069.03 2624.53 2240.28 2684.58C2299.47 2701.41 2342.61 2732.09 2336.63 2753.13Z" fill="#E8CAA8"/>
<path d="M2261.79 2755.72C2251.45 2794.15 2145.61 2799.09 2025.38 2766.75C1748.54 2718.64 1699.3 2665.28 1826.42 2638.59C1836.75 2600.16 1942.6 2595.22 2062.82 2627.57C2183.05 2659.91 2272.13 2717.29 2261.79 2755.72Z" fill="#E8CAA8"/>
<path d="M793.322 2786.39C832.119 2779.68 800.716 2817.86 696.634 2899.89C630.174 2941.92 565.709 2959.26 552.648 2938.6C539.588 2917.95 582.877 2867.14 649.337 2825.11C715.797 2783.07 780.262 2765.74 793.322 2786.39Z" fill="#E8CAA8"/>
<ellipse cx="636.814" cy="2846.92" rx="142.383" ry="44.2433" transform="rotate(-20.8015 636.814 2846.92)" fill="#E8CAA8"/>
<path d="M759.468 2753.08C766.99 2776.33 712.438 2814.8 637.621 2839.01C562.804 2863.22 496.055 2864 488.532 2840.75C481.01 2817.51 580.183 2754.21 655 2730C762.072 2695.94 765.807 2725.6 759.468 2753.08Z" fill="#E8CAA8"/>
<ellipse cx="747.475" cy="2763.54" rx="245.349" ry="76.0405" transform="rotate(-25.8889 747.475 2763.54)" fill="#E8CAA8"/>
<ellipse cx="2043.75" cy="2426.5" rx="400.019" ry="185.728" transform="rotate(-36.8441 2043.75 2426.5)" fill="#E8CAA8"/>
<path d="M876.574 2644.03C835.162 2743.42 631.775 2753.25 422.296 2665.97C212.816 2578.7 76.5709 2427.37 117.983 2327.97C159.394 2228.58 362.782 2218.75 572.261 2306.03C781.74 2393.3 917.986 2544.63 876.574 2644.03Z" fill="#E8CAA8"/>
<path d="M876.574 2644.03C835.162 2743.42 631.775 2753.25 422.296 2665.97C212.816 2578.7 76.5709 2427.37 117.983 2327.97C159.394 2228.58 362.782 2218.75 572.261 2306.03C781.74 2393.3 917.986 2544.63 876.574 2644.03Z" fill="#E8CAA8"/>
<path d="M876.574 2644.03C835.162 2743.42 631.775 2753.25 422.296 2665.97C212.816 2578.7 76.5709 2427.37 117.983 2327.97C159.394 2228.58 362.782 2218.75 572.261 2306.03C781.74 2393.3 917.986 2544.63 876.574 2644.03Z" fill="#E8CAA8"/>
<path d="M876.574 2644.03C835.162 2743.42 631.775 2753.25 422.296 2665.97C212.816 2578.7 76.5709 2427.37 117.983 2327.97C159.394 2228.58 362.782 2218.75 572.261 2306.03C781.74 2393.3 917.986 2544.63 876.574 2644.03Z" fill="#E8CAA8"/>
<path d="M876.574 2644.03C835.162 2743.42 631.775 2753.25 422.296 2665.97C212.816 2578.7 76.5709 2427.37 117.983 2327.97C159.394 2228.58 362.782 2218.75 572.261 2306.03C781.74 2393.3 917.986 2544.63 876.574 2644.03Z" fill="#E8CAA8"/>
<path d="M876.574 2644.03C835.162 2743.42 631.775 2753.25 422.296 2665.97C212.816 2578.7 76.5709 2427.37 117.983 2327.97C159.394 2228.58 362.782 2218.75 572.261 2306.03C781.74 2393.3 917.986 2544.63 876.574 2644.03Z" fill="#E8CAA8"/>
<ellipse cx="1325" cy="2091" rx="712" ry="742" fill="#E8CAA8"/>
<path d="M372.5 935.5C-207.5 526 43 -18.0001 123.5 1.49995C123.5 1.49995 314.5 10.5 788 356L372.5 935.5Z" fill="#DBBE9D"/>
<path d="M334 793C-56.9581 505.646 105.203 101.745 125.806 80.8304C137.281 63.4044 269.981 62.102 666 362C482.872 473.931 418.002 576.547 334 793Z" fill="#E7BEBE"/>
<path d="M2094.38 2116.07L2078.51 2122.15C2174.52 1753.27 2108.96 1618.08 1832 1478.76L1847.87 1472.68C2107.28 1614.84 2195.31 1736.18 2094.38 2116.07Z" fill="#4CABBF"/>
<path d="M654.777 1488.3L671.45 1491.62C393.501 1752.46 376.858 1901.78 536.848 2167.34L520.175 2164.02C376.556 1905.41 366.801 1755.82 654.777 1488.3Z" fill="#4CABBF"/>
<path d="M1729 338C1729 338 1767 272 1769 256C1771 240 1929.92 394.55 1983 514C1899.66 452.016 1876.68 427.377 1729 338Z" fill="#D4B692"/>
<ellipse cx="1276.5" cy="1000.5" rx="910.5" ry="772.5" fill="#E8CAA8"/>
<path d="M1198 234.019C1193.96 160.05 1174.03 134.362 1115 109.519C1227.94 81.8409 1262.83 122.542 1313.5 218.019C1333.15 158.993 1350.88 138.791 1405 146.019C1384.31 181.179 1383.25 202.019 1412.5 242.519L1198 234.019Z" fill="#E8CAA8"/>
<path d="M2186.08 952.005C2155.43 980.442 2105.59 960.103 2101.12 918.531C2071.64 644.296 1987.02 472.41 1769.47 261.105C1734.92 227.54 1760.62 166.98 1808.65 170.711L2620.08 233.743C2653.98 236.377 2675.43 271.401 2661.72 302.526C2545.38 566.819 2426.99 728.5 2186.08 952.005Z" fill="#DBBE9D"/>
<ellipse cx="820" cy="717.5" rx="130" ry="127.5" fill="white"/>
<path d="M1670.33 444C1689.77 439.971 1784.39 372.556 1839 467C1844.69 473.194 1848.25 485.822 1854.5 491.5C1866.67 502.56 1879.29 508.486 1892.11 518.666L1892.43 518.918C1897.99 523.331 1904.01 528.117 1910.5 531C1919.02 534.787 1925.44 543.093 1932.28 549.111C1944.22 559.618 1955.7 569.899 1966.56 581.5C1974.76 590.273 1982.78 599.66 1990.11 609.222C2001.77 624.425 2014 639.768 2020 658.222C2024.04 670.65 2028.87 684.268 2029 697.444C2029.09 707.189 2027.54 715.447 2025.5 724.944C2020.3 749.234 2009.38 771.61 2003.22 795.555C1997.5 817.824 1987.77 841.257 1994.22 864.444C1999.51 883.429 2000.68 903.192 2005.78 922.222C2007.91 930.182 2010.95 938.043 2009.44 946.444C2008.1 953.949 2006.16 960.961 2001.33 967.056C1994.03 976.283 1983.71 978.124 1972.89 980.778C1960.74 983.757 1949.68 986 1937.11 986C1924.68 986 1912.26 985 1899.89 985C1887.02 985 1874.06 984.126 1861.61 988C1849.18 991.867 1839.94 999.664 1828.89 1006.33C1807.37 1019.32 1789.11 1038.92 1764.39 1045.56C1749.11 1049.66 1734.73 1057.43 1719.11 1060.22C1711.02 1061.67 1703.4 1062.78 1695.33 1061C1688.96 1059.59 1683.32 1056.57 1677.06 1055C1670.06 1053.25 1661.07 1043.22 1657.17 1037.56C1652.2 1030.36 1650.63 1019.56 1648.5 1011.28C1643.04 990.055 1644.43 967.52 1640.78 946C1636.14 918.669 1632.25 890.758 1623 864.555C1617.6 849.268 1614.14 832.816 1604 819.778C1598.98 813.328 1590.01 806.244 1582.67 802.889C1573.75 798.815 1564.16 793.743 1554.89 790.555C1533.96 783.361 1516.17 769.61 1495.78 761C1483.97 756.015 1471.22 745.246 1463.94 734.944C1454.81 721.998 1443.25 710.47 1437.06 695.5C1434.5 689.325 1432 679.731 1432 673C1432 666.319 1429.59 659.262 1431.22 652.555C1433.25 644.243 1436.03 636.022 1438.11 627.666C1442.65 609.41 1451.18 594.499 1462.78 579.833C1473.15 566.716 1485.74 554.943 1496.67 542.222C1502.48 535.454 1508.32 529.427 1514.72 523.333C1524.84 513.706 1535.65 504.36 1546.67 495.778C1557.48 487.353 1567.21 479.789 1580 474.778C1589.77 470.947 1598.94 465.084 1608.33 460.389C1627.7 450.703 1649.47 448.324 1670.33 444Z" fill="#836F5D"/>
<ellipse cx="819.5" cy="723" rx="40.5" ry="41" fill="black"/>
<ellipse cx="1756" cy="717.5" rx="130" ry="127.5" fill="white"/>
<ellipse cx="1755.5" cy="723" rx="40.5" ry="41" fill="black"/>
<path d="M1009.49 1145.35C1009.47 1145.32 1009.46 1145.3 1009.45 1145.27C997.511 1120.54 991 1093.84 991 1066C991 937.87 1128.9 834 1299 834C1469.1 834 1607 937.87 1607 1066C1607 1091.69 1602.73 1113.57 1592.5 1136.67C1591.46 1139.77 1589.86 1145.4 1587.94 1148.17C1585.79 1151.28 1583.81 1155.34 1580.75 1157.72C1579.44 1158.74 1577.28 1163.86 1576 1165C1572.56 1168.06 1572.2 1168.83 1569.5 1172.61C1567.05 1176.03 1562.65 1178.41 1560.39 1182C1559.77 1182.98 1558.28 1183.55 1557.33 1184.11C1554.88 1185.56 1552.53 1187.18 1550 1188.5C1548.38 1189.34 1546.71 1190.11 1545 1190.75C1541.56 1192.04 1537.82 1192.64 1534.28 1193.72C1532.23 1194.35 1529.58 1195.77 1527.5 1196C1526.14 1196.15 1524.26 1197.29 1523 1197.67C1518.11 1199.13 1514.59 1199.89 1509.69 1199.53C1501.59 1198.93 1494.61 1194.67 1488.47 1189.5C1482.7 1184.64 1477.2 1179.7 1474.11 1172.61C1471.55 1166.74 1469.26 1161.04 1467.31 1154.89C1466.06 1150.97 1464.92 1146.97 1463.78 1143.03C1463.17 1140.91 1462.94 1138.33 1461.39 1136.67C1455.08 1129.94 1448.73 1125.87 1439.44 1124.11C1429.08 1122.15 1418.28 1120.27 1407.75 1121.78C1398.86 1123.05 1390.43 1126.07 1384 1132.5C1378.66 1137.84 1372.33 1144.55 1369.75 1151.72C1367.77 1157.24 1367.07 1160.83 1367.47 1166.67C1367.82 1171.67 1369.94 1176.42 1371.61 1181.11C1372.82 1184.49 1374.48 1187.72 1376 1190.97C1377.85 1194.93 1378.97 1199.05 1380.5 1203.11C1382.35 1208.01 1382.82 1213.74 1383.56 1218.83C1384.02 1222.07 1384.17 1225.07 1383.61 1228.28C1382.88 1232.51 1381.26 1236.55 1379.72 1240.5C1378.05 1244.8 1373.14 1249.4 1369.72 1252.39C1364.92 1256.59 1354.72 1260.31 1354.72 1260.31C1349.71 1265.81 1304.03 1257 1296.5 1250.5C1288.97 1244 1288.28 1241.55 1285 1237.89C1281.95 1234.48 1280.41 1229.56 1279.28 1225.19C1276.63 1214.99 1280.17 1206.21 1282.75 1196.47C1284.41 1190.19 1285.62 1183.47 1288.97 1177.81C1290.45 1175.32 1291.87 1172.29 1292.61 1169.5C1293.44 1166.38 1294.41 1163.82 1294.5 1160.5C1294.56 1158.47 1295.78 1155.66 1294.72 1153.69C1291.69 1148.07 1289.27 1143.11 1284.78 1138.31C1280.21 1133.43 1273.62 1127.61 1266.5 1127.5C1260.99 1127.42 1256.83 1128.58 1251.5 1130C1245.31 1131.65 1239.19 1133.58 1233.61 1136.78C1225.2 1141.6 1216.09 1150.45 1212.75 1159.72C1211.52 1163.14 1210.78 1167.24 1209 1170.39C1207.55 1172.95 1207.92 1175.87 1206.78 1178.47C1203.9 1185.05 1203.15 1192.74 1199.17 1198.94C1196.67 1202.83 1193.82 1203.63 1189.64 1205.06C1183.34 1207.21 1176.86 1208.87 1170.28 1210C1163.63 1211.14 1157.77 1212.04 1151 1212C1141.63 1211.95 1132.54 1210.61 1123.25 1209.97C1117.38 1209.57 1111.35 1207.94 1105.67 1206.5C1098.01 1204.56 1090.2 1203.15 1082.5 1201.22C1068.48 1197.72 1051.32 1187.89 1038 1182C1016.65 1169.38 1011.85 1150.28 1009.49 1145.35Z" fill="#D1B0B0"/>
<path d="M1395 2410C1667.46 2322.97 1813.6 2262.33 2035 2084V2142C1811.42 2318.12 1661.85 2365.55 1395 2450V2410Z" fill="#B8B8B8"/>
<path d="M1317 2410C1025.98 2317.02 873.517 2240.29 617 2068V2112C867.56 2303.12 1021.75 2374.72 1317 2450V2410Z" fill="#B8B8B8"/>
<path d="M1713 2586C1706.12 2378.32 1676.16 2273.61 1589 2102L1767 1862C1900.73 2041.55 1920.69 2195.98 1839 2586C1961.18 2663.78 2018.01 2707.19 1959 2782C1912.98 2791.16 1893.61 2784.5 1879 2736C1871.71 2784.14 1861.21 2802.64 1817 2802C1770.6 2804.4 1759.11 2787.3 1755 2736C1729.17 2789.02 1709.34 2800.79 1655 2758C1633.83 2716.73 1638.61 2683.75 1713 2586Z" fill="#E8CAA8" stroke="#836F5D" stroke-width="4"/>
<path d="M963 2554C810.798 2284.46 817.669 2148.09 887 1914L1163 2254C1127.46 2400.42 1134.65 2472.03 1183 2586C1286.18 2693.74 1319.73 2741.74 1281 2777C1223.18 2816.08 1200.03 2795.77 1165.61 2738.38C1170.51 2758.72 1137.55 2831.89 1075 2824C1012 2830.18 978.874 2756.61 984.453 2737.73C940.006 2802.39 912.038 2821.67 853 2777C819.938 2747.89 854.938 2690.74 963 2554Z" fill="#E8CAA8"/>
<path d="M887 1914C817.669 2148.09 810.798 2284.46 963 2554C854.938 2690.74 819.938 2747.89 853 2777C913.158 2822.52 941.056 2801.63 987 2734C973.004 2742.32 1006.18 2830.75 1075 2824C1143.8 2832.67 1176.79 2743.31 1163 2734C1198.9 2794.72 1221.73 2817.06 1281 2777C1319.73 2741.74 1286.18 2693.74 1183 2586C1134.65 2472.03 1127.46 2400.42 1163 2254C1055.22 2121.22 994.785 2046.78 887 1914Z" stroke="#836F5D" stroke-width="4"/>
<path d="M1693.3 2044.45C1611.57 2144.99 1497.56 2187.68 1438.66 2139.79C1379.75 2091.91 1398.26 1971.59 1479.99 1871.05C1561.72 1770.5 1675.72 1727.82 1734.63 1775.7C1793.53 1823.58 1775.03 1943.91 1693.3 2044.45Z" fill="#E8CAA8"/>
<ellipse cx="1039" cy="2059" rx="137.45" ry="234.607" transform="rotate(-24.3669 1039 2059)" fill="#E8CAA8"/>
<path d="M1412.45 2371.54C1390.07 2422.66 1318.29 2424.66 1293.1 2374.87L1088.58 1970.64C1066.73 1927.45 1097.25 1876.22 1145.64 1874.87L1531.87 1864.12C1580.25 1862.77 1613.58 1912.23 1594.16 1956.56L1412.45 2371.54Z" fill="#A8A8A8"/>
<path d="M1373 2028C1569.69 1974.89 1686.54 1895.51 1909 1648V1708C1718.23 1927.35 1603.78 2008.96 1385 2074L1373 2028Z" fill="#B8B8B8"/>
<path d="M1319 2030C1062.76 1936.86 931.602 1866.08 707 1726L687 1762C904.224 1908.66 1036.42 1979.13 1303 2070L1319 2030Z" fill="#B8B8B8"/>
<path d="M1458.1 1380.82C1456.23 1375.16 1449.98 1363.51 1448 1358C1565.54 1404.8 1659.41 1416.38 1792.5 1372.5C1801.1 1377.2 1803.75 1380.25 1812.97 1383.35C1826.63 1387.95 1840.03 1391.21 1854.13 1394C1870 1397.15 1885.81 1400.75 1901.71 1403.64C1920.73 1407.1 1940.17 1410.16 1959.39 1412.26C1968.41 1413.24 1977.73 1416.36 1986.44 1418.91C1993.9 1421.09 2001.72 1421.63 2009.14 1423.86C2017.54 1426.4 2026.14 1427.97 2034.47 1430.74C2040.3 1432.68 2046.6 1433.1 2052.2 1435.58C2073.71 1445.09 2093.99 1458.71 2113.34 1471.98C2138.99 1489.57 2162.65 1510.34 2184.29 1532.72C2196 1544.82 2204.25 1560.58 2211.84 1575.54C2219.48 1590.56 2229.04 1604.4 2236.89 1619.31C2251.96 1647.94 2251.31 1686.06 2248.21 1717.29C2246.64 1733.22 2245.14 1748.12 2239.23 1763.04C2233.59 1777.3 2230.06 1790.79 2220.88 1803.32C2202.11 1828.96 2172.08 1841.49 2142.57 1849.75C2124.33 1854.85 2105.72 1859.34 2086.9 1861.47C2072.67 1863.08 2059.58 1860.71 2045.62 1858.48C2009.4 1852.69 1977.27 1837.27 1945 1820.06C1904.85 1798.65 1872.27 1768.48 1844.82 1732.16C1830.54 1713.29 1819.1 1691.44 1807.89 1670.53C1798.54 1653.08 1786.08 1637.63 1776.15 1620.5C1771.54 1612.54 1765.74 1605.37 1762.26 1596.78C1759.01 1588.74 1753.18 1582.85 1748.71 1575.54C1739.57 1560.59 1725.22 1548.45 1712.67 1536.55C1682.06 1507.5 1649.43 1481.03 1610.43 1464.2C1597.16 1458.48 1582.5 1452.41 1568.6 1448.54C1559.38 1445.97 1550.68 1441.27 1541.6 1438.85C1530.47 1435.88 1520.38 1430.78 1509.47 1427.47C1501.59 1425.08 1493.03 1417.48 1486.6 1412.48C1481.23 1408.31 1474.98 1403.43 1470.7 1398.12C1466.8 1393.26 1460.05 1386.74 1458.1 1380.82Z" fill="#EA9F9F"/>
<path d="M1530.23 1384.65C1530.23 1384.65 1344.5 1505.71 1123.5 1385.71C1222.69 1367.24 1300.97 1319.51 1331.33 1259C1366.3 1317.85 1438.97 1365.33 1530.23 1384.65Z" fill="#836F5D"/>
<path fill-rule="evenodd" clip-rule="evenodd" d="M717 1188.68C770.248 1272.71 886.349 1349.7 1007.76 1376.52C1128.34 1403.14 1254.9 1380.39 1330.37 1265.03C1357.64 1305.79 1401.72 1338.91 1454.08 1362.31C1510.17 1387.37 1575.95 1401.36 1641.25 1401.63C1771.77 1402.17 1901.18 1347.81 1946.87 1216.32L1942.14 1214.68C1897.44 1343.35 1770.64 1397.17 1641.27 1396.63C1576.63 1396.36 1511.55 1382.51 1456.12 1357.74C1400.68 1332.97 1355.08 1297.36 1329.15 1253.72L1324.85 1256.28C1325.68 1257.67 1326.53 1259.06 1327.39 1260.43C1253.59 1375.07 1128.85 1398.13 1008.84 1371.63C888.473 1345.05 773.63 1268.71 721.224 1186L717 1188.68Z" fill="#836F5D"/>
<path d="M1007.76 1376.52L1007.87 1376.03L1007.87 1376.03L1007.76 1376.52ZM717 1188.68L716.732 1188.25L716.31 1188.52L716.578 1188.94L717 1188.68ZM1330.37 1265.03L1330.79 1264.75L1330.37 1264.12L1329.95 1264.75L1330.37 1265.03ZM1454.08 1362.31L1453.88 1362.76L1453.88 1362.76L1454.08 1362.31ZM1641.25 1401.63L1641.25 1401.13L1641.25 1401.13L1641.25 1401.63ZM1946.87 1216.32L1947.34 1216.49L1947.5 1216.01L1947.03 1215.85L1946.87 1216.32ZM1942.14 1214.68L1942.31 1214.21L1941.84 1214.04L1941.67 1214.52L1942.14 1214.68ZM1641.27 1396.63L1641.27 1397.13L1641.27 1397.13L1641.27 1396.63ZM1456.12 1357.74L1455.92 1358.2L1455.92 1358.2L1456.12 1357.74ZM1329.15 1253.72L1329.58 1253.47L1329.32 1253.04L1328.89 1253.29L1329.15 1253.72ZM1324.85 1256.28L1324.6 1255.85L1324.17 1256.1L1324.42 1256.53L1324.85 1256.28ZM1327.39 1260.43L1327.81 1260.7L1327.99 1260.44L1327.82 1260.17L1327.39 1260.43ZM1008.84 1371.63L1008.73 1372.12L1008.73 1372.12L1008.84 1371.63ZM721.224 1186L721.646 1185.73L721.378 1185.31L720.956 1185.58L721.224 1186ZM1007.87 1376.03C886.561 1349.24 770.586 1272.31 717.422 1188.41L716.578 1188.94C769.909 1273.11 886.136 1350.17 1007.65 1377L1007.87 1376.03ZM1329.95 1264.75C1254.63 1379.88 1128.32 1402.63 1007.87 1376.03L1007.65 1377C1128.35 1403.66 1255.16 1380.9 1330.79 1265.3L1329.95 1264.75ZM1454.29 1361.85C1401.98 1338.48 1357.99 1305.41 1330.79 1264.75L1329.96 1265.3C1357.3 1306.17 1401.45 1339.34 1453.88 1362.76L1454.29 1361.85ZM1641.25 1401.13C1576.02 1400.86 1510.31 1386.88 1454.29 1361.85L1453.88 1362.76C1510.03 1387.85 1575.88 1401.86 1641.25 1402.13L1641.25 1401.13ZM1946.4 1216.16C1900.81 1347.36 1771.65 1401.67 1641.25 1401.13L1641.25 1402.13C1771.88 1402.67 1901.56 1348.26 1947.34 1216.49L1946.4 1216.16ZM1941.98 1215.15L1946.7 1216.79L1947.03 1215.85L1942.31 1214.21L1941.98 1215.15ZM1641.27 1397.13C1770.76 1397.67 1897.81 1343.8 1942.62 1214.85L1941.67 1214.52C1897.07 1342.91 1770.53 1396.67 1641.27 1396.13L1641.27 1397.13ZM1455.92 1358.2C1511.41 1382.99 1576.56 1396.86 1641.27 1397.13L1641.27 1396.13C1576.7 1395.87 1511.69 1382.02 1456.33 1357.29L1455.92 1358.2ZM1328.72 1253.98C1354.72 1297.73 1400.41 1333.4 1455.92 1358.2L1456.33 1357.29C1400.94 1332.54 1355.44 1296.99 1329.58 1253.47L1328.72 1253.98ZM1325.11 1256.71L1329.4 1254.15L1328.89 1253.29L1324.6 1255.85L1325.11 1256.71ZM1327.82 1260.17C1326.95 1258.79 1326.11 1257.41 1325.28 1256.02L1324.42 1256.53C1325.25 1257.93 1326.1 1259.32 1326.97 1260.7L1327.82 1260.17ZM1008.73 1372.12C1128.86 1398.65 1253.86 1375.57 1327.81 1260.7L1326.97 1260.16C1253.32 1374.56 1128.83 1397.62 1008.95 1371.15L1008.73 1372.12ZM720.801 1186.27C773.292 1269.11 888.26 1345.52 1008.73 1372.12L1008.95 1371.15C888.685 1344.59 773.968 1268.31 721.646 1185.73L720.801 1186.27ZM717.268 1189.1L721.491 1186.42L720.956 1185.58L716.732 1188.25L717.268 1189.1Z" fill="#836F5D"/>
<path d="M1703 1398C1908.74 1456.41 1966.76 1499.81 2023 1586" stroke="#836F5D"/>
<rect x="1313" y="2400" width="86" height="63" rx="15" fill="#4D4A4A"/>
<path d="M1353.34 1994.35L1401.15 2087.51C1403.2 2091.5 1400.3 2096.25 1395.81 2096.25H1300.19C1295.7 2096.25 1292.8 2091.5 1294.85 2087.51L1342.66 1994.35C1344.89 1990.01 1351.11 1990.01 1353.34 1994.35Z" fill="#4CABBF" stroke="#5C5C5C" stroke-width="10"/>
</svg>
